<?xml version="1.0" standalone="no"?>
<!DOCTYPE svg PUBLIC "-//W3C//DTD SVG 20010904//EN"
 "http://www.w3.org/TR/2001/REC-SVG-20010904/DTD/svg10.dtd">
<svg version="1.0" xmlns="http://www.w3.org/2000/svg"
 width="506.000000pt" height="284.000000pt" viewBox="0 0 506.000000 284.000000"
 preserveAspectRatio="xMidYMid meet">

<g transform="translate(0.000000,284.000000) scale(0.100000,-0.100000)"
fill="#000000" stroke="none">
<path d="M2240 2584 c0 -21 4 -25 23 -22 14 2 23 11 25 26 3 18 -1 22 -22 22
-21 0 -26 -5 -26 -26z"/>
<path d="M2520 2559 c-24 -11 -53 -27 -62 -36 -17 -15 -18 -14 -18 15 0 27 -4
32 -25 32 -23 0 -25 -4 -25 -45 0 -50 -2 -51 -53 -30 -73 30 -162 6 -211 -57
-37 -49 -34 -68 8 -68 25 0 39 7 53 26 19 25 70 43 109 36 12 -2 36 -16 55
-33 43 -39 82 -39 98 0 32 76 132 126 209 103 22 -7 51 -21 66 -33 32 -25 66
-89 66 -124 0 -20 -5 -25 -25 -25 -21 0 -25 -5 -25 -30 0 -30 0 -30 56 -30 67
0 107 -21 129 -66 19 -40 19 -56 1 -99 -22 -52 -58 -65 -181 -65 l-105 0 0 25
c0 20 -5 25 -25 25 -20 0 -25 -5 -25 -25 0 -20 -5 -25 -25 -25 -20 0 -25 5
-25 25 0 20 -5 25 -25 25 -20 0 -25 -5 -25 -25 0 -20 -5 -25 -25 -25 -20 0
-25 5 -25 25 0 23 -3 25 -50 25 -47 0 -50 -2 -50 -25 0 -23 -3 -25 -50 -25
-47 0 -50 2 -50 25 0 20 -5 25 -26 25 -24 0 -25 -2 -22 -52 3 -46 6 -53 26
-56 20 -3 22 -8 22 -73 l0 -69 -50 0 -51 0 3 -72 c3 -67 5 -73 26 -76 20 -3
22 0 22 47 0 48 2 51 25 51 20 0 25 5 25 25 0 20 5 25 25 25 23 0 25 3 25 50
l0 50 75 0 c68 0 75 2 75 20 0 15 7 20 25 20 23 0 25 -4 25 -45 0 -41 2 -45
25 -45 23 0 25 4 25 45 0 41 2 45 25 45 24 0 25 -2 25 -70 0 -68 1 -70 25 -70
24 0 25 2 25 70 0 68 1 70 25 70 25 0 25 0 25 -95 l0 -95 50 0 c47 0 50 -2 50
-25 0 -18 5 -25 20 -25 30 0 28 47 -2 52 -15 2 -24 11 -26 26 -3 18 1 22 22
22 21 0 26 5 26 25 0 23 -4 25 -45 25 -41 0 -45 2 -45 25 0 18 5 25 20 25 13
0 20 7 20 20 0 17 7 20 51 20 108 0 174 66 174 175 0 78 -32 132 -98 164 -39
19 -45 26 -51 62 -25 159 -193 253 -336 188z"/>
<path d="M2024 2301 c-70 -43 -102 -140 -75 -224 15 -43 71 -96 112 -104 20
-4 29 -12 29 -24 0 -14 7 -19 25 -19 20 0 25 -5 25 -25 0 -20 5 -25 25 -25 20
0 25 5 25 25 0 20 -5 25 -25 25 -23 0 -25 3 -25 49 l0 48 -39 7 c-100 16 -125
159 -37 209 12 6 55 14 96 17 73 5 75 6 78 33 l3 27 -93 0 c-74 0 -99 -4 -124
-19z"/>
<path d="M2290 2289 c0 -26 3 -30 23 -27 16 2 23 11 25 31 3 23 0 27 -22 27
-22 0 -26 -4 -26 -31z"/>
<path d="M2632 2293 c2 -20 9 -29 26 -31 19 -3 22 1 22 27 0 27 -4 31 -26 31
-22 0 -25 -4 -22 -27z"/>
<path d="M2100 2145 c0 -18 5 -25 20 -25 15 0 20 7 20 25 0 18 -5 25 -20 25
-15 0 -20 -7 -20 -25z"/>
<path d="M2790 2145 c0 -18 5 -25 20 -25 15 0 20 7 20 25 0 18 -5 25 -20 25
-15 0 -20 -7 -20 -25z"/>
<path d="M2000 1855 c0 -68 2 -75 20 -75 15 0 20 7 20 25 0 20 5 25 25 25 20
0 25 5 25 25 0 20 -5 25 -25 25 -20 0 -25 5 -25 25 0 18 -5 25 -20 25 -18 0
-20 -7 -20 -75z"/>
<path d="M2890 1905 c0 -18 5 -25 20 -25 15 0 20 7 20 25 0 18 -5 25 -20 25
-15 0 -20 -7 -20 -25z"/>
<path d="M2340 1830 c0 -47 -2 -50 -25 -50 -20 0 -25 -5 -25 -25 0 -20 5 -25
25 -25 20 0 25 5 25 25 0 20 5 25 25 25 20 0 25 -5 25 -25 0 -18 5 -25 20 -25
15 0 20 7 20 25 0 18 -5 25 -20 25 -15 0 -20 7 -20 25 0 18 5 25 20 25 15 0
20 7 20 25 0 23 -4 25 -45 25 l-45 0 0 -50z"/>
<path d="M2490 1781 c0 -48 2 -51 26 -51 24 0 25 2 22 48 -3 40 -6 47 -25 50
-21 3 -23 0 -23 -47z"/>
<path d="M2890 1780 c0 -43 3 -50 20 -50 17 0 20 7 20 50 0 43 -3 50 -20 50
-17 0 -20 -7 -20 -50z"/>
<path d="M2590 1704 c0 -72 1 -75 23 -72 20 3 22 9 25 76 3 71 3 72 -23 72
-25 0 -25 -1 -25 -76z"/>
<path d="M2050 1705 c0 -18 5 -25 20 -25 15 0 20 7 20 25 0 18 -5 25 -20 25
-15 0 -20 -7 -20 -25z"/>
<path d="M2690 1680 c0 -43 3 -50 20 -50 17 0 20 7 20 50 0 43 -3 50 -20 50
-17 0 -20 -7 -20 -50z"/>
<path d="M2390 1655 c0 -18 5 -25 20 -25 15 0 20 7 20 25 0 18 -5 25 -20 25
-15 0 -20 -7 -20 -25z"/>
<path d="M2490 1656 c0 -21 5 -26 26 -26 21 0 25 4 22 23 -2 14 -11 23 -25 25
-19 3 -23 -1 -23 -22z"/>
<path d="M2297 1634 c-4 -4 -7 -27 -7 -51 0 -39 2 -43 26 -43 24 0 25 2 22 47
-2 34 -8 49 -18 51 -9 1 -19 0 -23 -4z"/>
<path d="M2100 1590 c0 -13 7 -20 20 -20 13 0 20 7 20 20 0 13 -7 20 -20 20
-13 0 -20 -7 -20 -20z"/>
<path d="M2590 1565 c0 -18 5 -25 20 -25 15 0 20 7 20 25 0 18 -5 25 -20 25
-15 0 -20 -7 -20 -25z"/>
<path d="M2440 1535 c0 -18 5 -25 20 -25 15 0 20 7 20 25 0 18 -5 25 -20 25
-15 0 -20 -7 -20 -25z"/>
<path d="M2440 1435 c0 -18 5 -25 20 -25 15 0 20 7 20 25 0 18 -5 25 -20 25
-15 0 -20 -7 -20 -25z"/>
<path d="M1101 1073 c-48 -25 -70 -59 -84 -131 -9 -48 -16 -62 -32 -65 -18 -4
-18 -4 3 -6 22 -1 22 -2 22 -160 0 -158 0 -160 -22 -164 -13 -2 38 -4 112 -4
74 0 114 2 87 4 l-48 4 3 157 3 157 50 6 50 6 -54 1 -54 2 5 84 c2 49 10 91
17 100 17 21 47 20 55 0 8 -20 -1 -34 -20 -34 -19 0 -18 -44 2 -64 23 -24 70
-20 88 6 22 31 20 52 -7 84 -20 23 -34 28 -83 31 -43 3 -68 -1 -93 -14z"/>
<path d="M2273 1040 c-74 -17 -123 -76 -123 -148 0 -92 36 -130 162 -171 92
-30 118 -53 118 -100 0 -51 -28 -76 -84 -76 -56 0 -115 39 -161 107 l-35 53 0
-88 c0 -48 4 -87 9 -87 5 0 11 5 13 11 3 8 21 7 66 -1 161 -32 260 20 270 143
8 96 -32 142 -155 182 -95 31 -133 56 -133 91 0 38 42 74 85 74 53 0 87 -22
130 -84 21 -31 40 -56 42 -56 1 0 3 31 3 70 0 66 -1 70 -22 68 -13 0 -50 4
-82 11 -33 6 -62 11 -65 10 -3 -1 -21 -4 -38 -9z"/>
<path d="M298 1033 l22 -4 0 -239 0 -239 -22 -4 c-13 -2 29 -4 92 -4 63 0 105
2 93 4 l-23 4 0 235 c0 234 0 235 23 244 15 6 -15 8 -93 8 -63 0 -105 -3 -92
-5z"/>
<path d="M2665 990 c-16 -4 -42 -11 -57 -14 -25 -6 -28 -11 -28 -50 0 -34 -4
-46 -17 -49 -17 -4 -17 -5 0 -6 15 -1 17 -14 17 -118 0 -65 5 -135 11 -155 12
-47 49 -68 118 -68 58 0 96 27 107 75 6 30 6 30 -13 -5 -14 -28 -24 -35 -48
-35 l-30 0 0 150 0 150 45 6 45 6 -47 1 -48 2 0 60 c0 64 -1 65 -55 50z"/>
<path d="M4245 968 c-28 -16 -35 -28 -35 -63 l0 -31 -65 4 c-107 7 -165 -32
-165 -110 0 -49 13 -74 51 -97 l30 -19 -35 -22 c-54 -33 -61 -96 -13 -121 11
-7 66 -15 120 -18 109 -7 125 -16 113 -64 -8 -35 -53 -57 -113 -57 -64 0 -93
21 -93 65 0 46 -30 64 -66 40 -39 -25 -30 -74 16 -97 49 -25 211 -25 259 0
107 54 101 191 -8 222 -20 5 -71 10 -113 10 -62 0 -78 3 -78 15 0 17 22 23
108 28 79 4 112 31 119 99 5 39 2 49 -26 80 -43 50 -40 118 6 118 17 0 17 -27
1 -33 -21 -6 10 -37 38 -37 22 0 44 25 44 49 0 17 -38 51 -57 51 -10 0 -27 -6
-38 -12z m-90 -203 c0 -90 -2 -100 -19 -103 -28 -6 -36 15 -36 100 0 92 6 110
34 106 20 -3 21 -9 21 -103z"/>
<path d="M548 870 c21 -9 22 -13 22 -164 0 -152 0 -155 -22 -159 -13 -2 24 -4
82 -4 58 -1 97 1 88 4 -16 4 -18 18 -18 121 0 99 3 122 20 150 23 38 55 42 64
10 3 -13 6 -80 6 -150 0 -112 -2 -127 -17 -131 -10 -3 29 -5 87 -4 58 0 95 2
83 4 -21 4 -22 10 -25 144 -3 140 -3 141 -31 165 -40 35 -114 34 -156 -2 l-31
-26 0 26 0 26 -87 -1 c-63 0 -82 -3 -65 -9z"/>
<path d="M1268 870 c21 -9 22 -13 22 -164 0 -152 0 -155 -22 -159 -13 -2 29
-4 92 -4 63 0 102 2 87 4 l-29 4 4 130 c3 124 4 130 30 155 16 17 32 24 42 21
22 -9 20 -28 -4 -34 -25 -7 -26 -44 -2 -66 24 -22 65 -21 85 1 23 25 22 85 -1
105 -30 27 -91 22 -124 -10 l-28 -27 0 27 0 27 -87 -1 c-63 0 -82 -3 -65 -9z"/>
<path d="M1664 866 c-17 -8 -34 -21 -38 -31 -10 -27 -7 -70 6 -83 17 -17 74
-15 92 4 20 20 21 60 1 68 -20 7 -19 33 3 45 15 9 14 10 -8 10 -14 0 -39 -6
-56 -13z"/>
<path d="M1763 869 c14 -8 17 -24 17 -89 l0 -80 -49 0 c-92 0 -131 -26 -131
-88 0 -49 29 -74 91 -80 46 -3 57 -1 73 17 18 20 20 20 38 4 10 -9 41 -18 72
-21 45 -4 57 -1 75 17 11 11 20 29 20 39 -1 16 -2 16 -6 0 -2 -10 -13 -18 -23
-18 -16 0 -18 12 -22 123 -4 130 -12 157 -55 176 -32 15 -125 15 -100 0z m15
-241 c-2 -50 -6 -63 -20 -66 -16 -3 -18 5 -18 56 0 61 4 72 27 72 11 0 13 -15
11 -62z"/>
<path d="M2935 866 c-42 -18 -83 -69 -91 -112 -16 -84 9 -153 70 -198 41 -31
178 -30 222 1 44 32 64 79 64 155 0 118 -51 168 -170 168 -36 -1 -79 -7 -95
-14z m122 -23 c5 -16 8 -82 8 -149 0 -127 -8 -154 -46 -154 -31 0 -39 34 -39
165 0 137 8 165 45 165 18 0 27 -7 32 -27z"/>
<path d="M3243 873 c15 -4 17 -21 17 -163 0 -143 -2 -159 -17 -163 -10 -3 34
-5 97 -4 63 0 103 2 88 4 l-28 4 0 120 c0 87 4 128 15 149 16 31 51 48 67 32
13 -13 2 -32 -18 -32 -19 0 -18 -44 2 -64 56 -56 135 35 88 102 -22 32 -96 31
-129 -2 -24 -24 -24 -24 -27 -2 -3 19 -9 21 -88 23 -47 0 -77 -1 -67 -4z"/>
<path d="M3634 861 c-35 -21 -47 -59 -30 -93 15 -30 70 -37 97 -12 23 20 25
60 4 68 -20 7 -19 33 3 45 14 9 12 10 -13 11 -16 0 -44 -9 -61 -19z"/>
<path d="M3743 866 c13 -13 17 -35 17 -91 l0 -73 -64 -4 c-88 -5 -116 -25
-116 -83 0 -35 5 -47 26 -64 35 -27 102 -28 135 -2 24 19 25 19 48 0 16 -13
39 -19 71 -19 41 0 52 4 69 26 12 15 21 36 20 48 -1 18 -2 18 -8 -4 -4 -14
-15 -26 -24 -28 -15 -3 -17 7 -17 90 -1 170 -21 208 -117 216 -54 5 -56 4 -40
-12z m17 -228 c0 -60 -11 -84 -34 -75 -32 13 -15 127 19 127 11 0 15 -13 15
-52z"/>
<path d="M4415 866 c-128 -57 -127 -267 2 -322 49 -21 142 -18 180 6 31 19 70
76 59 87 -3 3 -10 -6 -15 -19 -21 -54 -92 -84 -141 -58 -23 12 -40 61 -40 116
l0 44 100 0 100 0 0 34 c0 39 -35 95 -70 113 -33 17 -137 16 -175 -1z m113
-69 l3 -68 -33 3 c-32 3 -33 5 -36 50 -4 59 11 90 41 86 20 -3 22 -10 25 -71z"/>
</g>
</svg>
